<svg xmlns="http://www.w3.org/2000/svg" viewBox="0 0 100 100" width="100" height="100">
  <defs>
    <linearGradient id="babelGradient" x1="0%" y1="0%" x2="100%" y2="100%">
      <stop offset="0%" style="stop-color:#1e3a8a;stop-opacity:1" />
      <stop offset="100%" style="stop-color:#3b82f6;stop-opacity:1" />
    </linearGradient>
  </defs>
  <rect width="100" height="100" rx="16" fill="url(#babelGradient)"/>
  <!-- Babel "B" stylized -->
  <path d="M25 25 L25 75 L55 75 Q65 75 65 65 Q65 55 55 50 Q60 50 60 40 Q60 30 50 30 L25 30 Z M35 35 L50 35 Q50 40 45 40 L35 40 Z M35 50 L55 50 Q55 60 50 60 L35 60 Z" fill="white"/>
  <!-- Small tech dots pattern -->
  <circle cx="75" cy="25" r="2" fill="rgba(255,255,255,0.6)"/>
  <circle cx="82" cy="32" r="1.5" fill="rgba(255,255,255,0.4)"/>
  <circle cx="70" cy="35" r="1" fill="rgba(255,255,255,0.5)"/>
</svg>